<?xml version="1.0" encoding="UTF-8"?>
<svg id="Layer_1" data-name="Layer 1" xmlns="http://www.w3.org/2000/svg" viewBox="0 0 24 24">
  <g>
    <path d="M7.16,15.6h-.23l-4.95-2.48c-.11,0-.23-.23-.34-.45v-1.35h0l.11-.23,4.95-2.48h.34c.23,0,.34,0,.45.23,0,.11.11.34.11.68v.79c0,.11,0,.23-.23.34,0,0-.11,0-.23.11l-3.04,1.46,3.04,1.35s.11,0,.23.11c0,0,.11.11.23.34v1.24c0,.11,0,.23-.11.34h0c0,.11-.23.23-.23.23h0l-.11-.23Z"/>
    <path d="M7.38,14.59v.56h-.11l-4.95-2.48-.11-.23v-1.13h0l4.95-2.48h.23v1.35h-.11l-3.72,1.8,3.72,1.69h.11v.9Z"/>
  </g>
  <g>
    <path d="M9.97,18.08h-.45c-.11,0-.23,0-.34-.11-.11,0-.23-.23-.23-.34v-.34l3.83-10.92s0-.23.11-.23c0,0,.11-.11.23-.23h1.13c.11,0,.23,0,.34.11.11,0,.23.23.23.34v.34l-3.83,10.92s0,.23-.11.23c0,0-.11.11-.23.11h-.68v.11Z"/>
    <path d="M10.87,17.4v.11h-1.35v-.34l3.83-10.92v-.11h1.35v.34l-3.83,10.92Z"/>
  </g>
  <g>
    <path d="M16.84,15.6c-.11,0-.23,0-.34-.23v-1.46s0-.23.11-.34c0,0,.11,0,.23-.11l3.04-1.46-3.04-1.35s-.11,0-.23-.11c0,0-.11-.23-.23-.34v-1.24c0-.11,0-.23.11-.34h0c0-.11.23-.23.23-.23h.34l4.95,2.48c.23,0,.34.34.34.45v1.35h0l-.11.23-4.95,2.48h-.34l-.11.23Z"/>
    <path d="M22.13,12v.68h0l-4.95,2.48h-.11v-1.35h.11l3.72-1.8-3.72-1.69h-.11v-1.35c0-.11,0,0,0,0h.11l4.95,2.48.11.23v.45l-.11-.11Z"/>
  </g>
</svg>