<?xml version="1.0" encoding="UTF-8"?>
<svg id="Layer_1" data-name="Layer 1" xmlns="http://www.w3.org/2000/svg" viewBox="0 0 25 25">
  <g>
    <g>
      <path d="M8.17,15.76c-.07,0-.15-.03-.24-.07l-4.42-2.2c-.14-.08-.23-.21-.27-.39-.03-.13-.05-.3-.05-.52,0-.11,0-.21.01-.29,0-.09.02-.17.04-.22.02-.08.05-.16.1-.22l.04-.06.13-.1,4.42-2.19c.09-.04.17-.07.26-.07.15,0,.29.08.37.21.08.13.11.32.11.61,0,.17,0,.3,0,.39,0,.12-.02.21-.04.28-.03.11-.08.19-.15.26-.05.04-.11.08-.17.11l-2.74,1.28,2.67,1.24c.08.04.14.07.2.11.08.06.15.15.19.26.03.09.05.18.06.3,0,.1.01.24.01.41,0,.16,0,.29-.02.38-.02.13-.05.23-.11.3l-.09.12-.24.05h-.04Z"/>
      <path d="M8.37,14.91c0,.14,0,.25-.02.33-.01.08-.03.14-.05.17-.03.03-.06.05-.09.05-.04,0-.08-.02-.14-.05l-4.42-2.2c-.05-.03-.09-.09-.12-.19-.02-.1-.04-.24-.04-.44,0-.1,0-.19.01-.26,0-.07.02-.14.03-.18s.03-.09.05-.12c.02-.03.04-.05.07-.07l4.41-2.19c.11-.05.19-.04.24.03.05.07.07.23.07.46,0,.16,0,.28,0,.37,0,.09-.02.17-.03.22-.01.05-.04.09-.06.12-.03.02-.06.05-.11.07l-3.32,1.55,3.25,1.51c.06.03.1.05.14.08.04.03.06.07.08.12.02.06.03.13.04.22,0,.09.01.22.01.38Z"/>
    </g>
    <g>
      <path d="M10.7,17.95c-.17,0-.32,0-.43-.03-.14-.02-.25-.06-.33-.11-.13-.08-.21-.2-.23-.33-.02-.09,0-.19.04-.31l3.44-9.67c.03-.08.07-.17.13-.23.06-.06.14-.12.24-.15.08-.03.17-.05.28-.06.09-.01.21-.02.35-.02.18,0,.33,0,.43.03.14.02.25.06.33.11.12.08.2.19.22.33.02.09,0,.19-.02.3l-3.44,9.69c-.03.09-.08.17-.14.23-.07.07-.15.11-.25.15-.07.03-.16.04-.27.06-.09.01-.21.02-.35.02Z"/>
      <path d="M11.42,17.4s-.04.09-.07.12c-.03.03-.07.05-.13.07s-.12.03-.21.04c-.08,0-.19.01-.31.01-.16,0-.29,0-.39-.02-.1-.02-.18-.04-.23-.07-.05-.03-.08-.07-.09-.12,0-.05,0-.1.02-.17l3.44-9.66s.04-.09.07-.12c.03-.03.07-.06.13-.08.05-.02.12-.03.21-.04.09,0,.19-.01.31-.01.16,0,.29,0,.39.02.1.02.17.04.22.07s.08.07.09.12c0,.05,0,.1-.02.17l-3.44,9.67Z"/>
    </g>
    <g>
      <path d="M16.76,15.74c-.13-.01-.25-.08-.32-.2-.05-.08-.08-.18-.1-.3-.01-.09-.02-.19-.02-.32,0-.17,0-.3,0-.39,0-.12.02-.21.04-.28.03-.1.08-.19.14-.25.06-.05.12-.09.2-.13l2.72-1.28-2.67-1.24c-.08-.03-.14-.07-.2-.11-.08-.06-.15-.15-.19-.27-.03-.09-.05-.19-.05-.31,0-.1,0-.23,0-.4,0-.16,0-.28.02-.37.02-.14.05-.24.11-.31l.09-.12.24-.05c.12,0,.2.03.28.08l4.42,2.2c.19.09.25.3.27.37.04.13.05.3.05.53,0,.11,0,.21-.01.29,0,.09-.02.17-.04.23-.02.09-.06.16-.1.22l-.05.07-.15.09-4.4,2.18c-.09.04-.17.07-.26.07h-.04Z"/>
      <path d="M21.51,12.6c0,.1,0,.19-.01.26,0,.07-.02.13-.03.18-.01.05-.03.09-.05.12-.02.03-.05.05-.07.06l-4.42,2.19c-.05.03-.1.04-.14.04-.04,0-.07-.03-.09-.06-.03-.04-.04-.1-.05-.17,0-.08-.01-.17-.01-.29,0-.16,0-.28,0-.37s.02-.17.03-.22c.01-.05.04-.09.06-.12.03-.02.06-.05.11-.07l3.32-1.55-3.25-1.51c-.06-.03-.11-.05-.15-.08-.04-.03-.06-.07-.08-.12-.02-.06-.03-.13-.04-.22,0-.09,0-.22,0-.38,0-.14,0-.25.01-.33,0-.08.03-.14.05-.17s.06-.05.09-.05c.04,0,.08.02.14.05l4.42,2.2s.09.08.12.18c.03.1.04.25.04.44Z"/>
    </g>
  </g>
  <path d="M23,1.5c.27,0,.5.23.5.5v21c0,.27-.23.5-.5.5H2c-.27,0-.5-.23-.5-.5V2c0-.27.23-.5.5-.5h21M23,0H2C.9,0,0,.9,0,2v21C0,24.1.9,25,2,25h21c1.1,0,2-.9,2-2V2c0-1.1-.9-2-2-2h0Z"/>
</svg>