<?xml version="1.0" encoding="UTF-8"?>
<svg id="Layer_1" data-name="Layer 1" xmlns="http://www.w3.org/2000/svg" viewBox="0 0 24 24">
  <rect width="24" height="24" style="fill: #fff;"/>
  <g>
    <rect x="2.39" y="3.66" width="19.22" height="17.93" rx="2.67" ry="2.67" style="fill: #fff; stroke: #646464; stroke-miterlimit: 10; stroke-width: .4px;"/>
    <g>
      <g>
        <rect x="5.61" y="9.58" width="1.93" height="1.93" rx=".2" ry=".2" style="fill: #fff;"/>
        <rect x="5.61" y="9.58" width="1.93" height="1.93" rx=".2" ry=".2" style="fill: none; stroke: #231f20; stroke-miterlimit: 10; stroke-width: .4px;"/>
      </g>
      <g>
        <rect x="8.32" y="9.58" width="1.93" height="1.93" rx=".2" ry=".2" style="fill: #fff;"/>
        <rect x="8.32" y="9.58" width="1.93" height="1.93" rx=".2" ry=".2" style="fill: none; stroke: #231f20; stroke-miterlimit: 10; stroke-width: .4px;"/>
      </g>
      <g>
        <rect x="11.04" y="9.58" width="1.93" height="1.93" rx=".2" ry=".2" style="fill: #fff;"/>
        <rect x="11.04" y="9.58" width="1.93" height="1.93" rx=".2" ry=".2" style="fill: none; stroke: #231f20; stroke-miterlimit: 10; stroke-width: .4px;"/>
      </g>
      <g>
        <rect x="13.75" y="9.58" width="1.93" height="1.93" rx=".2" ry=".2" style="fill: #fff;"/>
        <rect x="13.75" y="9.58" width="1.93" height="1.93" rx=".2" ry=".2" style="fill: none; stroke: #231f20; stroke-miterlimit: 10; stroke-width: .4px;"/>
      </g>
      <g>
        <rect x="16.46" y="9.58" width="1.93" height="1.93" rx=".2" ry=".2" style="fill: #fff;"/>
        <rect x="16.46" y="9.58" width="1.93" height="1.93" rx=".2" ry=".2" style="fill: none; stroke: #231f20; stroke-miterlimit: 10; stroke-width: .4px;"/>
      </g>
      <g>
        <rect x="5.61" y="12.32" width="1.93" height="1.93" rx=".2" ry=".2" style="fill: #fff;"/>
        <rect x="5.61" y="12.32" width="1.93" height="1.93" rx=".2" ry=".2" style="fill: none; stroke: #231f20; stroke-miterlimit: 10; stroke-width: .4px;"/>
      </g>
      <g>
        <rect x="8.32" y="12.32" width="1.93" height="1.93" rx=".2" ry=".2" style="fill: #fff;"/>
        <rect x="8.32" y="12.32" width="1.93" height="1.93" rx=".2" ry=".2" style="fill: none; stroke: #231f20; stroke-miterlimit: 10; stroke-width: .4px;"/>
      </g>
      <g>
        <rect x="11.04" y="12.32" width="1.93" height="1.93" rx=".2" ry=".2" style="fill: #fff;"/>
        <rect x="11.04" y="12.32" width="1.93" height="1.93" rx=".2" ry=".2" style="fill: none; stroke: #231f20; stroke-miterlimit: 10; stroke-width: .4px;"/>
      </g>
      <g>
        <rect x="13.75" y="12.32" width="1.93" height="1.93" rx=".2" ry=".2" style="fill: #fff;"/>
        <rect x="13.75" y="12.32" width="1.93" height="1.93" rx=".2" ry=".2" style="fill: none; stroke: #231f20; stroke-miterlimit: 10; stroke-width: .4px;"/>
      </g>
      <g>
        <rect x="16.46" y="12.32" width="1.93" height="1.93" rx=".2" ry=".2" style="fill: #fff;"/>
        <rect x="16.46" y="12.32" width="1.93" height="1.93" rx=".2" ry=".2" style="fill: none; stroke: #231f20; stroke-miterlimit: 10; stroke-width: .4px;"/>
      </g>
      <g>
        <rect x="5.61" y="15.06" width="1.93" height="1.93" rx=".2" ry=".2" style="fill: #fff;"/>
        <rect x="5.61" y="15.06" width="1.93" height="1.93" rx=".2" ry=".2" style="fill: none; stroke: #231f20; stroke-miterlimit: 10; stroke-width: .4px;"/>
      </g>
      <g>
        <rect x="8.32" y="15.06" width="1.93" height="1.93" rx=".2" ry=".2" style="fill: #fff;"/>
        <rect x="8.32" y="15.06" width="1.93" height="1.93" rx=".2" ry=".2" style="fill: none; stroke: #231f20; stroke-miterlimit: 10; stroke-width: .4px;"/>
      </g>
      <g>
        <rect x="11.04" y="15.06" width="1.93" height="1.93" rx=".2" ry=".2" style="fill: #fff;"/>
        <rect x="11.04" y="15.06" width="1.93" height="1.93" rx=".2" ry=".2" style="fill: none; stroke: #231f20; stroke-miterlimit: 10; stroke-width: .4px;"/>
      </g>
      <g>
        <rect x="13.75" y="15.06" width="1.93" height="1.93" rx=".2" ry=".2" style="fill: #fff;"/>
        <rect x="13.75" y="15.06" width="1.93" height="1.93" rx=".2" ry=".2" style="fill: none; stroke: #231f20; stroke-miterlimit: 10; stroke-width: .4px;"/>
      </g>
      <g>
        <rect x="16.46" y="15.06" width="1.93" height="1.93" rx=".2" ry=".2" style="fill: #fff;"/>
        <rect x="16.46" y="15.06" width="1.93" height="1.93" rx=".2" ry=".2" style="fill: none; stroke: #231f20; stroke-miterlimit: 10; stroke-width: .4px;"/>
      </g>
      <g>
        <rect x="5.61" y="17.8" width="1.93" height="1.93" rx=".2" ry=".2" style="fill: #fff;"/>
        <rect x="5.61" y="17.8" width="1.93" height="1.93" rx=".2" ry=".2" style="fill: none; stroke: #231f20; stroke-miterlimit: 10; stroke-width: .4px;"/>
      </g>
      <g>
        <rect x="8.32" y="17.8" width="1.93" height="1.93" rx=".2" ry=".2" style="fill: #fff;"/>
        <rect x="8.32" y="17.8" width="1.93" height="1.93" rx=".2" ry=".2" style="fill: none; stroke: #231f20; stroke-miterlimit: 10; stroke-width: .4px;"/>
      </g>
      <g>
        <rect x="11.04" y="17.8" width="1.93" height="1.93" rx=".2" ry=".2" style="fill: #fff;"/>
        <rect x="11.04" y="17.8" width="1.93" height="1.93" rx=".2" ry=".2" style="fill: none; stroke: #231f20; stroke-miterlimit: 10; stroke-width: .4px;"/>
      </g>
      <rect x="5.61" y="6.84" width="1.93" height="1.93" rx=".2" ry=".2" style="fill: #969696; stroke: #231f20; stroke-miterlimit: 10; stroke-width: .4px;"/>
      <g>
        <rect x="8.32" y="6.84" width="1.93" height="1.93" rx=".2" ry=".2" style="fill: #fff;"/>
        <rect x="8.32" y="6.84" width="1.93" height="1.93" rx=".2" ry=".2" style="fill: none; stroke: #231f20; stroke-miterlimit: 10; stroke-width: .4px;"/>
      </g>
      <g>
        <rect x="11.04" y="6.84" width="1.93" height="1.93" rx=".2" ry=".2" style="fill: #fff;"/>
        <rect x="11.04" y="6.84" width="1.93" height="1.93" rx=".2" ry=".2" style="fill: none; stroke: #231f20; stroke-miterlimit: 10; stroke-width: .4px;"/>
      </g>
      <g>
        <rect x="13.75" y="6.84" width="1.93" height="1.93" rx=".2" ry=".2" style="fill: #fff;"/>
        <rect x="13.75" y="6.84" width="1.93" height="1.93" rx=".2" ry=".2" style="fill: none; stroke: #231f20; stroke-miterlimit: 10; stroke-width: .4px;"/>
      </g>
      <g>
        <rect x="16.46" y="6.84" width="1.93" height="1.93" rx=".2" ry=".2" style="fill: #fff;"/>
        <rect x="16.46" y="6.84" width="1.93" height="1.93" rx=".2" ry=".2" style="fill: none; stroke: #231f20; stroke-miterlimit: 10; stroke-width: .4px;"/>
      </g>
    </g>
    <path d="M8.07,5.84c-.67,0-1.21-.54-1.21-1.21,0-.34.14-.66.39-.88v-1.44c0-.45.37-.82.82-.82s.82.37.82.82v1.44c.24.23.39.55.39.88,0,.67-.54,1.21-1.21,1.21Z" style="fill: none; stroke: #fff; stroke-miterlimit: 10; stroke-width: .5px;"/>
    <path d="M8.59,3.89v-1.58c0-.29-.23-.52-.52-.52s-.52.23-.52.52v1.58c-.23.16-.39.43-.39.74,0,.5.41.91.91.91s.91-.41.91-.91c0-.31-.15-.58-.39-.74Z" style="fill: #fff; stroke: #646464; stroke-miterlimit: 10; stroke-width: .4px;"/>
    <path d="M15.93,5.84c-.67,0-1.21-.54-1.21-1.21,0-.34.14-.66.39-.88v-1.44c0-.45.37-.82.82-.82s.82.37.82.82v1.44c.24.23.39.55.39.88,0,.67-.54,1.21-1.21,1.21Z" style="fill: none; stroke: #fff; stroke-miterlimit: 10; stroke-width: .5px;"/>
    <path d="M16.45,3.89v-1.58c0-.29-.23-.52-.52-.52s-.52.23-.52.52v1.58c-.23.16-.39.43-.39.74,0,.5.41.91.91.91s.91-.41.91-.91c0-.31-.15-.58-.39-.74Z" style="fill: #fff; stroke: #646464; stroke-miterlimit: 10; stroke-width: .4px;"/>
  </g>
</svg>