<?xml version="1.0" encoding="UTF-8"?>
<svg id="Layer_1" data-name="Layer 1" xmlns="http://www.w3.org/2000/svg" viewBox="0 0 24 24">
  <defs>
    <style>
      .cls-1, .cls-2 {
        fill: #fff;
      }

      .cls-3 {
        stroke: #fff;
        stroke-width: .5px;
      }

      .cls-3, .cls-2, .cls-4 {
        stroke-miterlimit: 10;
      }

      .cls-3, .cls-4 {
        fill: none;
      }

      .cls-2 {
        stroke: #646464;
      }

      .cls-2, .cls-4 {
        stroke-width: .4px;
      }

      .cls-4 {
        stroke: #231f20;
      }

      .cls-5 {
        fill: #969696;
      }
    </style>
  </defs>
  <rect class="cls-1" width="24" height="24"/>
  <g>
    <rect class="cls-2" x="2.39" y="3.66" width="19.22" height="17.93" rx="2.67" ry="2.67"/>
    <g>
      <g>
        <rect class="cls-1" x="5.61" y="9.58" width="1.93" height="1.93" rx=".2" ry=".2"/>
        <rect class="cls-4" x="5.61" y="9.58" width="1.93" height="1.93" rx=".2" ry=".2"/>
      </g>
      <g>
        <rect class="cls-1" x="8.32" y="9.58" width="1.93" height="1.93" rx=".2" ry=".2"/>
        <rect class="cls-4" x="8.32" y="9.58" width="1.93" height="1.93" rx=".2" ry=".2"/>
      </g>
      <g>
        <rect class="cls-1" x="11.04" y="9.58" width="1.93" height="1.93" rx=".2" ry=".2"/>
        <rect class="cls-4" x="11.04" y="9.58" width="1.93" height="1.93" rx=".2" ry=".2"/>
      </g>
      <g>
        <rect class="cls-1" x="13.75" y="9.58" width="1.93" height="1.93" rx=".2" ry=".2"/>
        <rect class="cls-4" x="13.75" y="9.58" width="1.93" height="1.93" rx=".2" ry=".2"/>
      </g>
      <g>
        <rect class="cls-1" x="16.46" y="9.58" width="1.93" height="1.93" rx=".2" ry=".2"/>
        <rect class="cls-4" x="16.46" y="9.58" width="1.93" height="1.93" rx=".2" ry=".2"/>
      </g>
      <g>
        <rect class="cls-1" x="5.61" y="12.32" width="1.93" height="1.93" rx=".2" ry=".2"/>
        <rect class="cls-4" x="5.61" y="12.32" width="1.93" height="1.93" rx=".2" ry=".2"/>
      </g>
      <g>
        <rect class="cls-1" x="8.32" y="12.32" width="1.93" height="1.93" rx=".2" ry=".2"/>
        <rect class="cls-4" x="8.32" y="12.32" width="1.93" height="1.93" rx=".2" ry=".2"/>
      </g>
      <g>
        <rect class="cls-1" x="11.04" y="12.32" width="1.93" height="1.93" rx=".2" ry=".2"/>
        <rect class="cls-4" x="11.04" y="12.32" width="1.93" height="1.93" rx=".2" ry=".2"/>
      </g>
      <g>
        <rect class="cls-1" x="13.75" y="12.32" width="1.93" height="1.93" rx=".2" ry=".2"/>
        <rect class="cls-4" x="13.75" y="12.32" width="1.93" height="1.93" rx=".2" ry=".2"/>
      </g>
      <g>
        <rect class="cls-1" x="16.46" y="12.32" width="1.93" height="1.93" rx=".2" ry=".2"/>
        <rect class="cls-4" x="16.46" y="12.32" width="1.93" height="1.93" rx=".2" ry=".2"/>
      </g>
      <g>
        <rect class="cls-1" x="5.61" y="15.06" width="1.93" height="1.93" rx=".2" ry=".2"/>
        <rect class="cls-4" x="5.61" y="15.06" width="1.93" height="1.93" rx=".2" ry=".2"/>
      </g>
      <g>
        <rect class="cls-1" x="8.32" y="15.06" width="1.93" height="1.93" rx=".2" ry=".2"/>
        <rect class="cls-4" x="8.32" y="15.06" width="1.93" height="1.93" rx=".2" ry=".2"/>
      </g>
      <g>
        <rect class="cls-1" x="11.04" y="15.06" width="1.93" height="1.93" rx=".2" ry=".2"/>
        <rect class="cls-4" x="11.04" y="15.06" width="1.93" height="1.93" rx=".2" ry=".2"/>
      </g>
      <g>
        <rect class="cls-1" x="13.75" y="15.06" width="1.93" height="1.93" rx=".2" ry=".2"/>
        <rect class="cls-4" x="13.75" y="15.06" width="1.93" height="1.93" rx=".2" ry=".2"/>
      </g>
      <g>
        <rect class="cls-1" x="16.46" y="15.06" width="1.93" height="1.93" rx=".2" ry=".2"/>
        <rect class="cls-4" x="16.46" y="15.06" width="1.93" height="1.93" rx=".2" ry=".2"/>
      </g>
      <g>
        <rect class="cls-1" x="5.61" y="17.8" width="1.93" height="1.93" rx=".2" ry=".2"/>
        <rect class="cls-4" x="5.61" y="17.8" width="1.93" height="1.93" rx=".2" ry=".2"/>
      </g>
      <g>
        <rect class="cls-1" x="8.32" y="17.8" width="1.93" height="1.93" rx=".2" ry=".2"/>
        <rect class="cls-4" x="8.32" y="17.8" width="1.93" height="1.93" rx=".2" ry=".2"/>
      </g>
      <g>
        <rect class="cls-5" x="11.04" y="17.8" width="1.93" height="1.93" rx=".2" ry=".2"/>
        <rect class="cls-4" x="11.04" y="17.8" width="1.93" height="1.93" rx=".2" ry=".2"/>
      </g>
      <rect class="cls-4" x="5.61" y="6.84" width="1.93" height="1.93" rx=".2" ry=".2"/>
      <g>
        <rect class="cls-1" x="8.32" y="6.84" width="1.93" height="1.93" rx=".2" ry=".2"/>
        <rect class="cls-4" x="8.32" y="6.84" width="1.93" height="1.93" rx=".2" ry=".2"/>
      </g>
      <g>
        <rect class="cls-1" x="11.04" y="6.84" width="1.93" height="1.93" rx=".2" ry=".2"/>
        <rect class="cls-4" x="11.04" y="6.84" width="1.93" height="1.93" rx=".2" ry=".2"/>
      </g>
      <g>
        <rect class="cls-1" x="13.75" y="6.84" width="1.93" height="1.93" rx=".2" ry=".2"/>
        <rect class="cls-4" x="13.75" y="6.84" width="1.93" height="1.93" rx=".2" ry=".2"/>
      </g>
      <g>
        <rect class="cls-1" x="16.46" y="6.84" width="1.93" height="1.93" rx=".2" ry=".2"/>
        <rect class="cls-4" x="16.46" y="6.84" width="1.93" height="1.93" rx=".2" ry=".2"/>
      </g>
    </g>
    <path class="cls-3" d="M8.07,5.84c-.67,0-1.21-.54-1.21-1.21,0-.34.14-.66.39-.88v-1.44c0-.45.37-.82.82-.82s.82.37.82.82v1.44c.24.23.39.55.39.88,0,.67-.54,1.21-1.21,1.21Z"/>
    <path class="cls-2" d="M8.59,3.89v-1.58c0-.29-.23-.52-.52-.52s-.52.23-.52.52v1.58c-.23.16-.39.43-.39.74,0,.5.41.91.91.91s.91-.41.91-.91c0-.31-.15-.58-.39-.74Z"/>
    <path class="cls-3" d="M15.93,5.84c-.67,0-1.21-.54-1.21-1.21,0-.34.14-.66.39-.88v-1.44c0-.45.37-.82.82-.82s.82.37.82.82v1.44c.24.23.39.55.39.88,0,.67-.54,1.21-1.21,1.21Z"/>
    <path class="cls-2" d="M16.45,3.89v-1.58c0-.29-.23-.52-.52-.52s-.52.23-.52.52v1.58c-.23.16-.39.43-.39.74,0,.5.41.91.91.91s.91-.41.91-.91c0-.31-.15-.58-.39-.74Z"/>
  </g>
</svg>