<?xml version="1.0" encoding="UTF-8"?>
<svg id="Layer_1" data-name="Layer 1" xmlns="http://www.w3.org/2000/svg" viewBox="0 0 24 24">
  <g>
    <path d="M12,23.25C5.8,23.25.75,18.2.75,12S5.8.75,12,.75s11.25,5.05,11.25,11.25-5.05,11.25-11.25,11.25Z" style="fill: #fff;"/>
    <path d="M12,1.5c5.79,0,10.5,4.71,10.5,10.5s-4.71,10.5-10.5,10.5S1.5,17.79,1.5,12,6.21,1.5,12,1.5M12,0C5.37,0,0,5.37,0,12s5.37,12,12,12,12-5.37,12-12S18.63,0,12,0h0Z"/>
  </g>
  <path d="M11.01,23.18c-2.04-1.75-3.48-6.09-3.48-11.18S8.88,2.83,10.82.99" style="fill: #fff; stroke: #000; stroke-miterlimit: 10; stroke-width: 1.5px;"/>
  <path d="M13.18.98c1.94,1.88,3.3,6.19,3.3,11.21s-1.25,9-3.07,10.98" style="fill: #fff; stroke: #000; stroke-miterlimit: 10; stroke-width: 1.5px;"/>
  <line x1="1.21" y1="12" x2="22.79" y2="12" style="fill: #fff; stroke: #000; stroke-miterlimit: 10; stroke-width: 1.5px;"/>
  <path d="M19.73,3.86c-1.8,2.29-4.6,3.76-7.73,3.76s-5.82-1.41-7.62-3.62" style="fill: none; stroke: #000; stroke-linejoin: round; stroke-width: 1.5px;"/>
  <path d="M19.73,20.14c-1.8-2.29-4.6-3.76-7.73-3.76s-5.82,1.41-7.62,3.62" style="fill: none; stroke: #000; stroke-linejoin: round; stroke-width: 1.5px;"/>
</svg>