<?xml version="1.0" encoding="UTF-8"?>
<svg id="Layer_1" xmlns="http://www.w3.org/2000/svg" version="1.1" viewBox="0 0 24 24">
  <!-- Generator: Adobe Illustrator 29.7.0, SVG Export Plug-In . SVG Version: 2.1.1 Build 138)  -->
  <defs>
    <style>
      .st0 {
        fill: #fff;
        fill-rule: evenodd;
      }
    </style>
  </defs>
  <rect y="0" width="24" height="24"/>
  <path class="st0" d="M12,0C5.4,0,0,5.5,0,12.3s3.4,10.1,8.2,11.7c.6.1.8-.3.8-.6s0-1.3,0-2.3c-3.3.7-4-1.5-4-1.5-.5-1.4-1.3-1.8-1.3-1.8-1.1-.8,0-.8,0-.8,1.2,0,1.8,1.3,1.8,1.3,1.1,1.9,2.8,1.3,3.5,1,.1-.8.4-1.3.8-1.6-2.7-.3-5.5-1.3-5.5-6.1s.5-2.4,1.2-3.3c-.1-.3-.5-1.6.1-3.3,0,0,1-.3,3.3,1.3,1-.3,2-.4,3-.4s2.1.1,3,.4c2.3-1.6,3.3-1.3,3.3-1.3.7,1.7.2,2.9.1,3.3.8.9,1.2,2,1.2,3.3,0,4.7-2.8,5.8-5.5,6.1.4.4.8,1.1.8,2.3,0,1.6,0,3,0,3.4s.2.7.8.6c4.8-1.6,8.2-6.2,8.2-11.7C24,5.5,18.6,0,12,0h0Z"/>
</svg>