<?xml version="1.0" encoding="UTF-8"?>
<svg id="Layer_1" data-name="Layer 1" xmlns="http://www.w3.org/2000/svg" viewBox="0 0 63.63 55.17">
  <polygon points="8.34 9.72 8.16 45.76 11.42 44.68 20.72 44.3 28.69 46.19 31.4 48.04 31.4 11.24 27.5 9.12 22.5 7.8 14.14 7.39 8.34 9.72"/>
  <line x1="31.4" y1="11.24" x2="31.4" y2="48.04" style="stroke: #000; stroke-miterlimit: 10; stroke-width: 1.52px;"/>
  <path d="M31.4,11.24s4.89-3.8,12.29-3.8c6.93,0,11.53,2.28,11.53,2.28v36.43c0,.18-.18.3-.34.23-1.3-.53-4.64-2.31-11.19-2.14-4.86.13-10.03,2.62-11.72,3.5-.33.17-.73.12-1.02-.12-1.19-1.01-4.91-3.46-12.69-3.38-8.29.09-9.06,1.24-9.68,1.87-.09.09-.24.03-.24-.1V9.72s2.91-2.7,10.77-2.28c8.5.46,12.29,3.8,12.29,3.8Z" style="fill: none; stroke: #000; stroke-linecap: square; stroke-miterlimit: 10; stroke-width: 1.52px;"/>
</svg>