<?xml version="1.0" encoding="UTF-8"?>
<svg id="Layer_1" xmlns="http://www.w3.org/2000/svg" viewBox="0 0 63.63 55.17">
  <polygon points="1 4.06 .76 51.43 5.05 50.01 17.27 49.52 27.74 52 31.31 54.43 31.31 6.06 26.19 3.27 19.61 1.53 8.63 1 1 4.06"/>
  <line x1="31.31" y1="6.06" x2="31.31" y2="54.43" style="stroke: #000; stroke-miterlimit: 10; stroke-width: 2px;"/>
  <path d="M31.31,6.06s6.42-5,16.16-5c9.11,0,15.16,3,15.16,3v47.88c0,.23-.23.39-.45.31-1.7-.7-6.1-3.04-14.71-2.81-6.39.17-13.19,3.44-15.41,4.6-.44.23-.96.16-1.34-.15-1.57-1.32-6.45-4.55-16.68-4.44-10.9.11-11.9,1.63-12.73,2.46-.12.12-.31.03-.31-.13V4.06S4.83.5,15.16,1.06c11.17.6,16.16,5,16.16,5Z" style="fill: none; stroke: #000; stroke-linecap: square; stroke-miterlimit: 10; stroke-width: 2px;"/>
</svg>