<?xml version="1.0" encoding="UTF-8"?>
<svg id="Layer_1" data-name="Layer 1" xmlns="http://www.w3.org/2000/svg" viewBox="0 0 24 24">
  <path d="M20,1c1.65,0,3,1.35,3,3v16c0,1.65-1.35,3-3,3H4c-1.65,0-3-1.35-3-3V4C1,2.35,2.35,1,4,1h16M20,0H4C1.79,0,0,1.79,0,4v16C0,22.21,1.79,24,4,24h16c2.21,0,4-1.79,4-4V4C24,1.79,22.21,0,20,0h0Z" style="fill: #fff;"/>
  <g>
    <path d="M7.54,17.56V6.32" style="fill: none; stroke: #fff; stroke-miterlimit: 10; stroke-width: 1.43px;"/>
    <path d="M15.64,8.35c-.41.64-1,1.57-1.82,2.92-2.09,3.42-3.71.86-4.28,2.38-.82,2.07-1.31,3.3-1.61,4.02" style="fill: none; stroke: #fff; stroke-miterlimit: 10; stroke-width: 1.43px;"/>
    <path d="M7.54,20.01c-.86,0-1.43-.67-1.43-1.43s.67-1.43,1.43-1.43,1.43.67,1.43,1.43-.67,1.43-1.43,1.43Z" style="fill: none;"/>
    <path d="M7.52,16.91c-1.24,0-2.19.95-2.19,2.19s.95,2.19,2.19,2.19,2.19-.95,2.19-2.19-.95-2.19-2.19-2.19ZM7.52,19.86c-.38,0-.76-.38-.76-.76s.38-.76.76-.76.76.38.76.76-.38.76-.76.76Z" style="fill: #fff;"/>
    <path d="M7.52,2.71c-1.24,0-2.19.95-2.19,2.19s.95,2.19,2.19,2.19,2.19-.95,2.19-2.19-.95-2.19-2.19-2.19ZM7.52,5.66c-.38,0-.76-.38-.76-.76s.38-.76.76-.76.76.38.76.76-.38.76-.76.76Z" style="fill: #fff;"/>
    <path d="M16.48,4.9c-1.24,0-2.19.95-2.19,2.19s.95,2.19,2.19,2.19,2.19-.95,2.19-2.19-.95-2.19-2.19-2.19ZM16.48,7.85c-.38,0-.76-.38-.76-.76s.38-.76.76-.76.76.38.76.76-.38.76-.76.76Z" style="fill: #fff;"/>
  </g>
</svg>