<?xml version="1.0" encoding="UTF-8"?>
<svg id="Layer_1" data-name="Layer 1" xmlns="http://www.w3.org/2000/svg" viewBox="0 0 24 24">
  <path d="M7.6,17.5V6.3" style="fill: none; stroke: #000; stroke-miterlimit: 10; stroke-width: 1.4px;"/>
  <path d="M15.7,8.3c-.4.6-1,1.6-1.8,2.9-2.1,3.4-3.7.9-4.3,2.4-.8,2.1-1.3,3.3-1.6,4" style="fill: none; stroke: #000; stroke-miterlimit: 10; stroke-width: 1.4px;"/>
  <path d="M7.6,20c-.9,0-1.4-.7-1.4-1.4s.7-1.4,1.4-1.4,1.4.7,1.4,1.4-.7,1.4-1.4,1.4Z" style="fill: none;"/>
  <path d="M7.5,16.9c-1.2,0-2.2,1-2.2,2.2s1,2.2,2.2,2.2,2.2-1,2.2-2.2-1-2.2-2.2-2.2ZM7.5,19.8c-.4,0-.8-.4-.8-.8s.4-.8.8-.8.8.4.8.8-.4.8-.8.8Z"/>
  <path d="M7.5,2.7c-1.2,0-2.2,1-2.2,2.2s1,2.2,2.2,2.2,2.2-1,2.2-2.2-1-2.2-2.2-2.2ZM7.5,5.6c-.4,0-.8-.4-.8-.8s.4-.8.8-.8.8.4.8.8-.4.8-.8.8Z"/>
  <path d="M16.5,4.9c-1.2,0-2.2,1-2.2,2.2s1,2.2,2.2,2.2,2.2-1,2.2-2.2-1-2.2-2.2-2.2ZM16.5,7.8c-.4,0-.8-.4-.8-.8s.4-.8.8-.8.8.4.8.8-.4.8-.8.8Z"/>
</svg>