<?xml version="1.0" encoding="UTF-8"?>
<svg id="Layer_1" xmlns="http://www.w3.org/2000/svg" version="1.1" viewBox="0 0 1337 1383.4">
  <!-- Generator: Adobe Illustrator 29.6.0, SVG Export Plug-In . SVG Version: 2.1.1 Build 207)  -->
  <defs>
    <style>
      .st0 {
        fill: #c9372e;
      }

      .st1 {
        stroke-width: 22.9px;
      }

      .st1, .st2, .st3, .st4, .st5, .st6, .st7, .st8, .st9, .st10, .st11 {
        stroke: #252624;
      }

      .st1, .st2, .st4, .st5, .st7, .st8, .st9, .st10 {
        stroke-miterlimit: 10;
      }

      .st1, .st3, .st4, .st5 {
        fill: #f6caab;
      }

      .st2 {
        stroke-width: 26.6px;
      }

      .st2, .st7, .st12 {
        fill: none;
      }

      .st3 {
        stroke-linejoin: bevel;
      }

      .st3, .st4, .st6, .st7, .st9, .st10, .st11 {
        stroke-width: 18px;
      }

      .st3, .st12 {
        stroke-linecap: round;
      }

      .st5 {
        stroke-width: 23.5px;
      }

      .st13, .st14 {
        fill: #fff;
      }

      .st6, .st12, .st11 {
        stroke-linejoin: round;
      }

      .st6, .st10 {
        fill: #d6a24e;
      }

      .st8 {
        fill: #64baae;
        stroke-width: 28.4px;
      }

      .st12 {
        stroke: #fff;
        stroke-width: 25px;
      }

      .st9, .st11 {
        fill: #e9c061;
      }

      .st14 {
        isolation: isolate;
        opacity: .2;
      }

      .st15 {
        fill: #252624;
      }
    </style>
  </defs>
  <circle class="st8" cx="668.5" cy="660.9" r="598.3"/>
  <g>
    <g>
      <polygon class="st1" points="303.1 1064.9 289.8 1199.8 416 1259.3 422.6 1087.7 303.1 1064.9"/>
      <polygon class="st5" points="929.6 1259.2 1050.4 1198.9 1036.7 1064.9 915.1 1096.4 929.6 1259.2"/>
      <path class="st4" d="M843.4,423.1c5.3,17.8-1.7,62.3-5.1,80.5-5.6,29.4-22,105.9-42,128.2-79,88-126.6,70.9-126.6,70.9,0,0,71.8-8.4,1.8,0-47.8,5.7-123.8-46.6-148.4-81-17.4-24.4-14.6-88.7-20.2-118.1-3.5-18.2-29.7-66.4-21.3-82.9,0,0,59.4-19.3,77.9-32.9,30.2-22.2,60-59.1,93.8-96.3,23.2-25.4,47.1-21,58.2-19.1,14.7,2.5,34,19.3,43.3,31,15,18.8,36.7,62.3,51.8,81,10.4,12.9,36.9,38.7,36.9,38.7h-.1Z"/>
      <path class="st3" d="M575,683.7l-6.9,49.4s-172.1,61.4-200.3,81c-55.2,38.2-81.2,255.9-81.2,255.9l144.8,28.1-1.1,63,480.9.4-3.1-65,140-25.4s-25.5-214.3-79.5-252.5c-23.4-16.5-198-72-198-72l-18.7-61.6c-1.4-4.5-6.9-6.2-10.5-3.2-9.9,8-31.2,19.9-71.6,20.9-34.9.9-65.8-15.1-81.6-25-5.2-3.3-12.2,0-13,6.1h-.2Z"/>
      <path class="st15" d="M770.5,746.6c47.8,15.5,179.8,59.2,198,72,54.1,38.1,79.6,252.5,79.6,252.5l-121.1,21.7,2.7,166.4c.2,13.6-17.3,19.3-30.6,22l-126.8,32.7c-28.7,4.5-142.2,9.6-171,5.3l-154.8-33.1c-9.4-2-30.6-17.2-30.5-26.8l15.4-164.2-144.8-25.1s26-217.7,81.2-255.9c22.1-15.3,153.4-63.9,200.3-81l104.4,141.1c4.4,4.6,11.8,4.5,16-.3l82-127.3h0Z"/>
      <path class="st9" d="M518.5,593.7c7,35.3-43.4,152.9-51.2,200.2-4.6,28.2,20.4,77.5,20.4,77.5,0,0-26.9-5-39.2-23s-28-58-28-58l-52.7,23.8s9.9-24.5,12.4-32.9c14.3-48.1,38.9-146,43.6-196,3.9-42.1-5.9-126.8-5.7-169.1.2-38.4,25.2-96.8,41.9-125.4,14.8-25.5,54.2-71.5,78.8-87.6,25.6-16.8,60.8-34.4,98.7-34.4s73,17.6,73,17.6l1,86c-46.5-6.8-75.1,40.6-106.7,78.3-38.3,45.7-122.3,75.2-122.3,75.2.4,2.9.1.9.9,4.3,4.2,17.9,12.7,41.8,19.4,73.5,4.2,19.6,7.9,41.4,11.1,61.1,4.1,25.5,2.7,19.5,4.5,29h.1Z"/>
      <path class="st11" d="M711.4,272.3c31.7,5.8,63.6,47.9,74.9,79,15.3,42,59,79.5,59,79.5,13,18.4,37.6,59.4,8.1,113.3-4.3,7.8-23.1,15.7-26.2,24-10.2,27.1.2,71.5,4.8,100.1s26.7,101.2,21.5,129.6c-10,54.1-33.5,68.5-33.5,68.5,0,0,46.3,0,74.5-42,7-10.5,16-30,16-30l66,25.1s-2.3-46.8-6.8-61.6c-18.7-62.3-49.7-140.6-51.5-189.9-3-81.8-18-175.5-38.8-229.9-14.2-37.2-51.5-111.1-89.4-131.6-30.8-16.7-79.5-20-79.5-20l1,86h0Z"/>
      <path class="st10" d="M479.9,768.8l88.2-35.7,8.8-63.1s-25.3-18.5-32.4-26.2c-16.2-17.6-26.1-50.1-26.1-50.1,0,0,1.7,17.4-.8,33.1-3.6,22.3-12,46.8-15,60.4-4.6,20.7-22.7,81.7-22.7,81.7h0Z"/>
      <path class="st6" d="M770.5,746.6l80.5,29.2s-8.1-81-20.1-115.3c-20.1-57.6-5-103.4-5-103.4,0,0-10.7,51.6-29.6,74.7-11.8,14.3-47.7,44.5-47.7,44.5l22,70.3h-.1Z"/>
      <path class="st4" d="M475.8,428.9c-4.3,8.2-9.9,17.3-12.8,34.6-2.2,13.1-3.5,29.9,1,53.2,1.9,9.7,6,18.6,11.8,25.1,8.6,9.7,16.6,14.6,21.8,15.4,2.5.4,10.3,0,10.3,0l-24.5-127s-6.5-3.5-7.6-1.3h0Z"/>
      <path class="st4" d="M855.1,436.9c5.8,5.8,11.1,13,15.8,31.5,3.7,14.5,3,26.5-.2,48.2-1.2,8.5-6.6,21.8-13,27.5-5,4.4-16.4,12.2-21.5,13-2.5.4-8.3,0-8.3,0l13.8-128.3s7.1,2.9,8.9,4.7l4.5,3.4Z"/>
      <path class="st0" d="M596.9,568.4c-5.7-2.1-8.7,5.9-6.8,9.5,7,12.8,27.7,33.2,35.1,38.6,9.3,6.9,16.5,14.2,41.5,14.1s35.7-10.9,45.3-17.1c15.8-10.1,27.4-25.5,32.9-37.8,1.7-3.9-1.8-8.6-6-7.3-12.2,3.7-33.4,12.5-44.8,14.2-14.4,2.2-20.7,3.7-42.6,1.3-10.4-1.1-39.5-9.9-54.7-15.5h0Z"/>
      <path class="st15" d="M640.9,545.3c-.4,0-.6.4-.3.6,3.1,2.5,11.1,9.1,14.6,10.5,2.2.9,10.1,2,12.5,2.1,2.8,0,9.4-1.5,12-2.5,3.8-1.5,10.5-8.2,13.7-11.2.3-.3,0-.8-.4-.7-3.7,1.3-10.2,4.1-16,4.7-3.8.4-13.6.9-17.5.6s-14.7-3.1-18.6-4h0Z"/>
      <path class="st14" d="M497.5,428.8c-3.7,16.8,1.6,59.9,14.1,73.1,12.2,12.9,37,21.1,50.8,22.5,14.1,1.5,47.2-2.5,58-11.5,12.7-10.6,23-46.4,23.2-62.9,0-9.4-4.7-18.2-13.1-23.8-13.2-8.8-50.4-12-66.2-11.2-18.7.9-64.1,1.8-66.7,13.8h-.1Z"/>
      <path class="st14" d="M839.7,428.8c3.7,16.8-1.6,59.9-14.1,73.1-12.2,12.9-37,21.1-50.8,22.5s-47.2-2.5-58-11.5c-12.7-10.6-25.4-46.5-23.2-62.9,1.6-11.3,6.8-19.6,13.1-23.8,13.2-8.8,50.4-12,66.2-11.2,18.7.9,64.1,1.8,66.7,13.8h0Z"/>
      <path class="st7" d="M497.5,428.8c-3.7,16.8,1.6,59.9,14.1,73.1,12.2,12.9,37,21.1,50.8,22.5,14.1,1.5,47.2-2.5,58-11.5,12.7-10.6,23-46.4,23.2-62.9,0-9.4-4.7-18.2-13.1-23.8-13.2-8.8-50.4-12-66.2-11.2-18.7.9-64.1,1.8-66.7,13.8h-.1Z"/>
      <path class="st7" d="M837.7,428.8c3.7,16.8-1.6,59.9-14.1,73.1-12.2,12.9-35,21.1-48.8,22.5s-47.2-2.5-58-11.5c-12.7-10.6-25.4-46.5-23.2-62.9,1.6-11.3,6.8-19.6,13.1-23.8,13.2-8.8,50.4-12,66.2-11.2,18.7.9,62.1,1.8,64.7,13.8h0Z"/>
      <polyline class="st12" points="613.1 1094.6 547 1037.5 619.2 980.4"/>
      <polyline class="st12" points="740.4 986 811.2 1043.1 743.3 1104.4"/>
      <line class="st12" x1="639.5" y1="1134.1" x2="704.4" y2="956.3"/>
      <circle class="st15" cx="761.2" cy="464.2" r="26"/>
      <circle class="st15" cx="573.5" cy="464.2" r="26"/>
      <circle class="st13" cx="760.4" cy="459.2" r="9.2"/>
      <circle class="st13" cx="573.5" cy="459.2" r="9.2"/>
      <line class="st7" x1="635.1" y1="433.5" x2="702" y2="435.4"/>
      <path class="st7" d="M643,444.9s7.9-6.2,16-8c12.1-2.7,16.6-.5,21.9.7,7.9,1.7,12.4,5.6,12.4,5.6"/>
      <path class="st13" d="M616.2,588.6c-.5,0-.7.6-.3.8,6.5,4.3,16.6,14.9,38.7,21.5,6.8,2,21.5,1.5,28.2-.8,24.3-8.1,33.3-21.1,35.4-22.7h0c-2.8.6-21.2,10.7-48.7,10.6-24.2,0-44.8-8-53.3-9.4h0Z"/>
    </g>
    <path class="st2" d="M1052.8,1194.3c-107.8,76.7-239.7,121.8-382.1,121.8s-272.2-44.4-379.5-120"/>
  </g>
</svg>