<?xml version="1.0" encoding="UTF-8"?>
<svg id="Layer_1" xmlns="http://www.w3.org/2000/svg" version="1.1" viewBox="0 0 24 24">
  <!-- Generator: Adobe Illustrator 29.6.0, SVG Export Plug-In . SVG Version: 2.1.1 Build 207)  -->
  <defs>
    <style>
      .st0 {
        fill: #ffd100;
      }
    </style>
  </defs>
  <polygon class="st0" points="8.3 14.4 2.3 10.1 9.7 10.1 12 3 14.3 10.1 21.7 10.1 15.7 14.4 18 21.4 12 17.1 6 21.4 8.3 14.4"/>
  <path class="st0" d="M12,5.4l1.4,4.3.3,1h5.6l-3.7,2.7-.9.6.3,1,1.4,4.3-3.7-2.7-.9-.6-.9.6-3.7,2.7,1.4-4.3.3-1-.9-.6-3.7-2.7h5.6l.3-1,1.4-4.3M12,.6l-2.8,8.7H0l7.4,5.4-2.8,8.7,7.4-5.4,7.4,5.4-2.8-8.7,7.4-5.4h-9.2L12,.6h0Z"/>
</svg>