<?xml version="1.0" encoding="UTF-8"?>
<svg id="Layer_1" xmlns="http://www.w3.org/2000/svg" viewBox="0 0 74.56 74.56">
  <circle cx="37.28" cy="37.28" r="37.28" style="fill: #231f20;"/>
  <path d="M41.92,42.76v16c0,.23-.08.45-.23.63-.15.19-.4.34-.76.46-.35.12-.83.21-1.42.28s-1.34.11-2.23.11-1.66-.04-2.25-.11-1.06-.16-1.42-.28c-.36-.12-.62-.27-.76-.46-.14-.19-.21-.4-.21-.63v-16l-12.45-24.79c-.45-.87-.73-1.54-.86-2.02-.13-.48-.06-.84.21-1.09s.77-.4,1.49-.46c.73-.06,1.73-.09,3.02-.09,1.08,0,1.94.02,2.58.07.64.05,1.15.14,1.53.26.38.13.65.3.83.51s.35.48.51.81l5.06,11.18c.49,1.08.98,2.21,1.46,3.41s.97,2.45,1.46,3.76h.07c.45-1.27.9-2.5,1.37-3.69s.93-2.33,1.37-3.41l4.99-11.11c.12-.37.26-.67.44-.9.18-.22.44-.4.79-.54s.83-.23,1.44-.28c.61-.05,1.42-.07,2.43-.07,1.34,0,2.37.03,3.11.09.74.06,1.24.21,1.51.46s.33.62.19,1.11-.42,1.16-.84,2l-12.45,24.79Z" style="fill: #fff;"/>
</svg>