<?xml version="1.0" encoding="UTF-8"?>
<svg id="Layer_1" xmlns="http://www.w3.org/2000/svg" viewBox="0 0 48 48">
  <circle cx="24" cy="24" r="24"/>
  <path d="M33.8,15.61c0,1.59-.23,3.01-.68,4.24-.45,1.23-1.09,2.28-1.9,3.15s-1.79,1.55-2.93,2.04-2.41.78-3.8.87l-.19,6.54c0,.27-.16.48-.48.61-.32.14-.83.2-1.53.2-.38,0-.71-.01-.98-.04s-.49-.07-.65-.14c-.16-.06-.28-.15-.35-.26-.07-.11-.11-.23-.11-.38l-.16-7.52c-.02-.42.01-.76.1-1.02.08-.26.2-.48.37-.65.16-.17.37-.29.62-.35.25-.06.54-.1.87-.1h.6c1.18,0,2.18-.19,3.01-.56.83-.37,1.51-.86,2.02-1.48.52-.62.89-1.34,1.13-2.17.23-.83.35-1.7.35-2.61,0-1.03-.15-1.98-.43-2.84-.29-.86-.72-1.6-1.3-2.23-.58-.62-1.31-1.11-2.19-1.45-.88-.34-1.91-.52-3.11-.52-1.05,0-1.97.11-2.76.34-.79.23-1.47.48-2.05.75-.58.27-1.05.52-1.43.73-.37.22-.65.33-.83.33-.13,0-.24-.03-.34-.08-.1-.05-.19-.16-.26-.31-.07-.15-.13-.36-.16-.62-.04-.26-.05-.59-.05-.99,0-.43.03-.76.08-.99.05-.23.17-.43.35-.6.18-.17.53-.4,1.05-.68.52-.28,1.14-.54,1.87-.77.73-.23,1.54-.43,2.42-.6.88-.16,1.79-.24,2.73-.24,1.94,0,3.6.28,5,.83,1.39.55,2.54,1.3,3.45,2.24.91.94,1.57,2.05,2.01,3.31.43,1.27.65,2.61.65,4.02ZM25.22,39.7c0,.6-.04,1.09-.12,1.48-.08.39-.23.71-.45.95s-.51.42-.88.52c-.37.1-.83.15-1.37.15-.58,0-1.05-.05-1.41-.15-.36-.1-.66-.27-.88-.52-.23-.24-.38-.56-.46-.95-.08-.39-.12-.88-.12-1.48s.04-1.1.12-1.51.23-.72.46-.95.52-.39.88-.49c.36-.1.83-.15,1.41-.15.54,0,1,.05,1.37.15.37.1.67.26.88.49.22.23.37.54.45.95s.12.91.12,1.51Z" style="fill: #fff;"/>
</svg>